<svg viewBox="0 0 96 96" xmlns="http://www.w3.org/2000/svg" xmlns:xlink="http://www.w3.org/1999/xlink" id="Icons_User_M" overflow="hidden"><g id="Icons"><path d="M48 16C55.732 16 62 22.268 62 30 62 37.732 55.732 44 48 44 40.268 44 34 37.732 34 30 34.0077 22.2712 40.2712 16.0077 48 16M48 14C39.1634 14 32 21.1634 32 30 32 38.8366 39.1634 46 48 46 56.8366 46 64 38.8366 64 30 64 21.1634 56.8366 14 48 14Z"/><path d="M80 82 78 82 78 66.5C77.9524 64.3759 76.9517 62.3859 75.275 61.081 70.8893 57.7158 65.8678 55.2731 60.513 53.9 56.4587 52.6524 52.2419 52.0121 48 52 43.7594 52.0736 39.5476 52.7126 35.476 53.9 30.1771 55.452 25.1778 57.8861 20.688 61.1 19.0282 62.4064 18.0417 64.3882 18 66.5L18 82 16 82 16 66.5C16.0496 63.7686 17.3263 61.2047 19.476 59.519 24.1675 56.1512 29.3949 53.6012 34.937 51.977 39.1839 50.7396 43.5771 50.0747 48 50 52.4321 50.0109 56.8382 50.6778 61.075 51.979 66.6845 53.4244 71.9429 55.9913 76.533 59.525 78.6784 61.2106 79.9516 63.772 80 66.5Z"/></g></svg>